Coordinates
version=1
nRows=14
nColumns=24
inDegrees=yes

Units are S.I. units (second, meters, Newtons, ...)
Angles are in degrees.

endheader
time	pelvis_tilt	pelvis_list	pelvis_rotation	pelvis_tx	pelvis_ty	pelvis_tz	hip_flexion_r	hip_adduction_r	hip_rotation_r	knee_angle_r	ankle_angle_r	subtalar_angle_r	mtp_angle_r	hip_flexion_l	hip_adduction_l	hip_rotation_l	knee_angle_l	ankle_angle_l	subtalar_angle_l	mtp_angle_l	lumbar_extension	lumbar_bending	lumbar_rotation
      1.39583333	     -0.12619526	      1.16661590	     -5.14917946	      0.21934660	      1.02213906	      0.28066967	     14.77878795	     -5.37896978	     -3.18451319	    -64.08979325	      5.50919956	     -3.39644629	      7.63951654	      8.87062453	      1.92065588	     -9.37191542	    -11.64931990	      2.35486946	    -12.58605571	    -14.25001030	     -9.49077703	     -3.74398100	      5.16380429
      1.40000000	     -0.01106345	      0.97117578	     -4.73293826	      0.22421888	      1.02306117	      0.27946442	     15.09148748	     -5.22738780	     -3.72327654	    -63.77543597	      5.58871972	     -4.02955228	      7.21743309	      8.34908174	      1.86246349	     -8.98568779	    -11.43658871	      2.44361205	    -12.47665676	    -14.31577720	     -9.69965448	     -3.41794630	      4.66906297
      1.40416667	      0.01480256	      0.85321397	     -4.46468566	      0.22901263	      1.02376173	      0.27861831	     15.56570788	     -5.09835685	     -4.09470918	    -63.47140973	      5.53402516	     -4.76858105	      6.99866305	      7.91073574	      1.84521543	     -8.73582954	    -11.19474899	      2.53711399	    -12.42538153	    -14.34719624	     -9.79273485	     -3.23459204	      4.47313684
      1.40833333	      0.20531368	      0.64181211	     -4.02851361	      0.23385209	      1.02477232	      0.27736861	     15.75882506	     -4.95827756	     -4.67866695	    -63.02483441	      5.61192276	     -5.33150517	      6.49816392	      7.30287490	      1.76721871	     -8.33176693	    -10.96013521	      2.60959107	    -12.31583443	    -14.42030730	    -10.09387809	     -2.88777816	      3.94400474
      1.41250000	      0.30570712	      0.46865434	     -3.66969517	      0.23867746	      1.02559182	      0.27631895	     16.07427959	     -4.82292285	     -5.17521766	    -62.55786326	      5.61189923	     -5.94921979	      5.99418763	      6.78712552	      1.70090230	     -8.00522070	    -10.71748138	      2.68358447	    -12.24784044	    -14.49374833	    -10.27048515	     -2.60295231	      3.59747632
      1.41666667	      0.48108289	      0.33684844	     -3.29284717	      0.24345354	      1.02647095	      0.27519014	     16.30313604	     -4.76448725	     -5.70131781	    -62.05351577	      5.61272381	     -6.49035702	      5.19781562	      6.18732648	      1.68809884	     -7.63832779	    -10.45296039	      2.78075060	    -12.19000074	    -14.60914733	    -10.54556614	     -2.37529598	      3.17891935
      1.42083333	      0.62427122	      0.18551571	     -2.94855626	      0.24825233	      1.02729081	      0.27418832	     16.55073961	     -4.66201248	     -6.19494816	    -61.48556853	      5.62791851	     -7.03293179	      4.31401430	      5.62104512	      1.63124549	     -7.34355404	    -10.19178859	      2.84025898	    -12.11795397	    -14.73926380	    -10.76528940	     -2.12416055	      2.81926405
      1.42500000	      0.63922012	      0.02435136	     -2.68686317	      0.25300951	      1.02785698	      0.27342046	     16.95899214	     -4.49828381	     -6.58428522	    -60.89731093	      5.60942033	     -7.54376422	      4.04452057	      5.19818579	      1.53123268	     -7.12788640	     -9.95287923	      2.93738642	    -12.01331132	    -14.77506105	    -10.84110283	     -1.85795380	      2.66514273
      1.42916667	      0.83766241	     -0.15729568	     -2.30067812	      0.25783547	      1.02873739	      0.27235322	     17.08617836	     -4.38974493	     -7.13986018	    -60.18882857	      5.68650575	     -7.92320820	      3.59778310	      4.57771939	      1.43276734	     -6.82852482	     -9.69841174	      3.00386068	    -11.90829995	    -14.83254614	    -11.11648379	     -1.56382865	      2.22305997
      1.43333333	      0.90633188	     -0.28184420	     -2.02120724	      0.26257519	      1.02931626	      0.27156002	     17.40389103	     -4.28863058	     -7.56115910	    -59.49423801	      5.64001060	     -8.39803070	      3.34671905	      4.09563919	      1.37033612	     -6.59293382	     -9.44198304	      3.09939797	    -11.84382871	    -14.86184206	    -11.24259477	     -1.36072113	      2.02926319
      1.43750000	      1.16865796	     -0.40441426	     -1.62360714	      0.26735020	      1.03020671	      0.27041286	     17.44301753	     -4.27400120	     -8.13940895	    -58.70814716	      5.72353427	     -8.63396185	      2.50696887	      3.38808373	      1.34091058	     -6.21314201	     -9.12072075	      3.06679013	    -11.84617696	    -14.96615187	    -11.60778455	     -1.10937180	      1.55539601
      1.44166667	      1.26042236	     -0.56551387	     -1.30666539	      0.27211431	      1.03077177	      0.26960402	     17.67706504	     -4.14693241	     -8.61234375	    -57.89013841	      5.80561721	     -8.92658855	      2.07741444	      2.90343965	      1.21854471	     -6.01036346	     -8.91234006	      3.24279229	    -11.65703967	    -15.01421813	    -11.75839191	     -0.83649581	      1.23219251
      1.44583333	      1.41680839	     -0.69168049	     -0.99005051	      0.27686045	      1.03140451	      0.26874849	     17.82691925	     -4.07387409	     -9.09257324	    -57.02151281	      5.85265349	     -9.16281710	      1.66028441	      2.32747024	      1.14341440	     -5.75409333	     -8.64243969	      3.31330109	    -11.59741466	    -15.05933570	    -11.98629240	     -0.60840306	      0.94719095
      1.45000000	      1.56297741	     -0.80528083	     -0.68508155	      0.28160688	      1.03197623	      0.26794803	     17.97706697	     -4.00804609	     -9.55904643	    -56.11240644	      5.90263140	     -9.36006329	      1.25018038	      1.76466559	      1.07165187	     -5.52114287	     -8.37548726	      3.38857631	    -11.51518959	    -15.10009090	    -12.19871934	     -0.39716978	      0.64702373
